<svg width="15" height="23" viewBox="0 0 15 23" fill="none" xmlns="http://www.w3.org/2000/svg">
<path d="M3.75 23.0002C5.82 23.0002 7.5 21.2828 7.5 19.1668V15.3335H3.75C1.68 15.3335 0 17.0508 0 19.1668C0 21.2828 1.68 23.0002 3.75 23.0002Z" fill="#0ACF83"/>
<path d="M0 11.4998C0 9.38384 1.68 7.6665 3.75 7.6665H7.5V15.3332H3.75C1.68 15.3332 0 13.6158 0 11.4998Z" fill="#A259FF"/>
<path d="M0 3.83333C0 1.71733 1.68 0 3.75 0H7.5V7.66667H3.75C1.68 7.66667 0 5.94933 0 3.83333Z" fill="#F24E1E"/>
<path d="M7.5 0H11.25C13.32 0 15 1.71733 15 3.83333C15 5.94933 13.32 7.66667 11.25 7.66667H7.5V0Z" fill="#FF7262"/>
<path d="M15 11.4998C15 13.6158 13.32 15.3332 11.25 15.3332C9.18 15.3332 7.5 13.6158 7.5 11.4998C7.5 9.38384 9.18 7.6665 11.25 7.6665C13.32 7.6665 15 9.38384 15 11.4998Z" fill="#1ABCFE"/>
</svg>
